<svg width="300" height="300" viewBox="0 0 200 200" xmlns="http://www.w3.org/2000/svg">
  <defs>
    <filter id="gG" x="-60%" y="-60%" width="220%" height="220%">
      <feGaussianBlur stdDeviation="3.5" result="b"/>
      <feMerge><feMergeNode in="b"/><feMergeNode in="SourceGraphic"/></feMerge>
    </filter>
    <filter id="gR" x="-60%" y="-60%" width="220%" height="220%">
      <feGaussianBlur stdDeviation="3" result="b"/>
      <feMerge><feMergeNode in="b"/><feMergeNode in="SourceGraphic"/></feMerge>
    </filter>
    <filter id="gB" x="-60%" y="-60%" width="220%" height="220%">
      <feGaussianBlur stdDeviation="3" result="b"/>
      <feMerge><feMergeNode in="b"/><feMergeNode in="SourceGraphic"/></feMerge>
    </filter>
  </defs>
  <g transform="translate(0,11)">
    <polyline points="15,175 15,5 100,85 185,5 185,175" stroke="#39FF14" stroke-width="14" fill="none" stroke-linecap="round" stroke-linejoin="round" opacity="0.2"/>
    <polyline points="15,175 15,5 100,85 185,5 185,175" stroke="#39FF14" stroke-width="5" fill="none" stroke-linecap="round" stroke-linejoin="round" filter="url(#gG)"/>
    <polyline points="38,175 38,44 100,118 162,44 162,175" stroke="#39FF14" stroke-width="14" fill="none" stroke-linecap="round" stroke-linejoin="round" opacity="0.15"/>
    <polyline points="38,175 38,44 100,118 162,44 162,175" stroke="#39FF14" stroke-width="5" fill="none" stroke-linecap="round" stroke-linejoin="round" filter="url(#gG)"/>
    <polyline points="15,42 38,67 15,92 38,117 15,142 38,162" stroke="#ff2d55" stroke-width="5" fill="none" stroke-linecap="round" stroke-linejoin="round" opacity="0.3"/>
    <polyline points="15,42 38,67 15,92 38,117 15,142 38,162" stroke="#ff2d55" stroke-width="2.5" fill="none" stroke-linecap="round" stroke-linejoin="round" filter="url(#gR)"/>
    <polyline points="185,42 162,67 185,92 162,117 185,142 162,162" stroke="#00aaff" stroke-width="5" fill="none" stroke-linecap="round" stroke-linejoin="round" opacity="0.3"/>
    <polyline points="185,42 162,67 185,92 162,117 185,142 162,162" stroke="#00aaff" stroke-width="2.5" fill="none" stroke-linecap="round" stroke-linejoin="round" filter="url(#gB)"/>
    <circle cx="15" cy="42" r="2.5" fill="#ff2d55" filter="url(#gR)"/>
    <circle cx="38" cy="67" r="2" fill="#ff2d55" filter="url(#gR)" opacity="0.8"/>
    <circle cx="15" cy="92" r="2" fill="#ff2d55" filter="url(#gR)" opacity="0.8"/>
    <circle cx="38" cy="117" r="2" fill="#ff2d55" filter="url(#gR)" opacity="0.8"/>
    <circle cx="15" cy="142" r="2" fill="#ff2d55" filter="url(#gR)" opacity="0.8"/>
    <circle cx="38" cy="162" r="2.5" fill="#ff2d55" filter="url(#gR)"/>
    <circle cx="185" cy="42" r="2.5" fill="#00aaff" filter="url(#gB)"/>
    <circle cx="162" cy="67" r="2" fill="#00aaff" filter="url(#gB)" opacity="0.8"/>
    <circle cx="185" cy="92" r="2" fill="#00aaff" filter="url(#gB)" opacity="0.8"/>
    <circle cx="162" cy="117" r="2" fill="#00aaff" filter="url(#gB)" opacity="0.8"/>
    <circle cx="185" cy="142" r="2" fill="#00aaff" filter="url(#gB)" opacity="0.8"/>
    <circle cx="162" cy="162" r="2.5" fill="#00aaff" filter="url(#gB)"/>
  </g>
</svg>
